<svg width="619" height="127" viewBox="0 0 619 127" fill="none" xmlns="http://www.w3.org/2000/svg">
<path d="M36.2119 93.0092C20.2422 78.3323 19.4817 53.6129 34.691 37.3907C49.1398 21.1686 74.2352 20.3961 89.4443 35.8457C105.414 50.5229 106.175 76.0148 90.9652 91.4646C76.5165 107.687 52.1817 108.459 36.2119 93.0092Z" fill="#F05A2B"/>
<path d="M118.342 79.1046C117.581 78.3321 116.821 77.5596 116.06 76.7871C109.216 93.7818 96.2883 107.686 79.5581 115.411C80.3186 116.184 81.079 116.956 81.8395 118.501C92.486 128.543 109.216 128.543 119.102 117.729C128.988 106.914 128.988 89.1468 118.342 79.1046Z" fill="white"/>
<path d="M114.54 48.9778C115.301 48.2053 116.061 47.4329 116.822 46.6604C127.468 35.8456 126.708 18.851 116.822 8.80872C106.175 -2.00604 89.4451 -1.23356 79.559 8.80872C78.7985 9.58117 78.0381 10.3537 78.0381 11.1261C94.0079 18.851 106.936 31.9832 114.54 48.9778Z" fill="#F05A2B"/>
<path d="M11.1159 49.7502C18.7205 32.7556 31.6484 19.6234 48.3786 11.8986C47.6182 10.3536 46.8577 10.3536 46.0972 9.58115C35.4508 -1.23363 18.7205 -1.23363 8.83449 9.58115C-1.81202 20.3959 -1.81202 37.3905 8.83449 47.4328C9.59496 48.2052 10.3554 48.9778 11.1159 49.7502Z" fill="white"/>
<path d="M11.1159 78.3325C10.3554 79.1049 9.59496 79.8774 8.83449 80.6499C-1.81202 91.4646 -1.81202 108.459 8.83449 118.502C19.481 128.544 36.2112 129.316 46.0972 118.502C46.8577 117.729 47.6182 116.957 48.3786 115.412C31.6484 108.459 18.7205 95.3271 11.1159 78.3325Z" fill="white"/>
<path d="M178.418 98.4166C181.46 94.5542 187.544 93.7816 190.586 96.8716C195.149 100.734 201.993 104.596 208.837 104.596C213.4 104.596 217.202 103.051 220.244 101.507C222.525 99.1889 223.286 97.6441 223.286 96.0991C223.286 95.3266 223.286 94.5542 222.525 94.5542C222.525 93.7816 221.765 93.0092 220.244 92.2367C217.963 90.6918 212.639 88.3743 207.316 87.6018C201.993 86.8293 197.43 85.2844 192.867 82.9669C188.304 80.6495 184.502 77.5595 181.46 72.9247C179.939 70.6072 178.418 66.7448 178.418 62.8824C178.418 55.1575 182.981 48.9777 188.304 44.3427C194.388 40.4803 201.232 38.1629 208.837 38.1629C220.244 38.1629 228.609 43.5703 233.932 47.4327C237.735 49.7502 239.256 55.93 236.214 59.7924C233.932 63.6548 227.849 65.1998 224.046 62.1099C218.723 58.2474 214.16 55.93 208.837 55.93C205.035 55.93 201.232 57.475 198.951 59.02C196.67 60.5649 196.67 62.1099 196.67 62.8824C196.67 63.6548 196.67 63.6548 196.67 64.4273C196.67 64.4273 197.43 65.1998 198.19 65.9723C200.472 67.5172 204.274 69.0622 210.358 69.8347C215.681 70.6072 221.004 72.1521 225.567 74.4696C230.13 76.7871 234.693 79.8769 236.974 84.5119C239.256 87.6018 240.016 91.4642 240.016 95.3266C240.016 103.824 235.453 110.776 229.37 114.639C223.286 118.501 215.681 121.591 208.077 121.591C195.149 121.591 185.263 115.411 178.418 110.004C176.137 107.686 175.377 102.279 178.418 98.4166Z" fill="white"/>
<path d="M326.71 80.6495V113.866C326.71 118.501 322.908 123.136 317.584 123.136C313.022 123.136 309.98 120.046 309.219 116.184C303.135 120.819 295.531 123.136 287.166 123.136C275.759 123.136 265.873 118.501 259.029 110.776C252.184 103.052 247.622 93.0092 247.622 81.4219C247.622 69.8347 251.424 59.7924 259.029 52.0676C265.873 44.3428 275.759 39.7079 287.166 39.7079C295.531 39.7079 303.135 42.7978 309.219 47.4327C309.98 43.5703 313.782 39.7079 317.584 39.7079C322.147 39.7079 326.71 43.5703 326.71 48.9777V80.6495ZM309.219 80.6495C309.219 73.6971 306.938 67.5173 303.135 63.6549C299.333 59.02 293.249 56.7025 287.926 56.7025C281.842 56.7025 276.519 59.02 272.717 63.6549C268.915 67.5173 266.633 73.6971 266.633 80.6495C266.633 87.6018 268.915 93.7817 272.717 97.6441C276.519 101.506 281.842 103.824 287.926 103.824C294.01 103.824 299.333 101.506 303.135 97.6441C306.938 93.7817 309.219 87.6018 309.219 80.6495Z" fill="white"/>
<path d="M344.96 80.6496V14.2159C344.96 9.58106 348.762 4.94617 354.086 4.94617C359.409 4.94617 363.211 8.80858 363.211 14.2159V45.8877C369.295 41.2529 376.9 38.9354 385.265 38.9354C407.318 38.9354 425.569 58.2475 425.569 81.4219C425.569 103.824 408.079 123.136 385.265 123.136C376.9 123.136 369.295 120.046 362.451 116.184C361.69 120.046 357.888 123.136 353.325 123.136C348.002 123.136 344.2 119.274 344.2 113.866V80.6496H344.96ZM363.211 80.6496C363.211 86.8295 365.493 93.0093 370.055 97.644C373.858 102.279 379.181 104.596 385.265 104.596C391.348 104.596 396.672 102.279 400.474 97.644C404.276 93.7817 407.318 87.6018 407.318 80.6496C407.318 73.6973 405.037 67.5174 400.474 63.6549C396.672 59.02 390.588 56.7025 385.265 56.7025C379.181 56.7025 373.858 59.02 370.055 63.6549C365.493 68.2898 363.211 73.6973 363.211 80.6496Z" fill="white"/>
<path d="M457.509 48.2052V113.866C457.509 119.273 453.707 123.136 448.383 123.136C443.06 123.136 439.258 119.273 439.258 113.866V48.2052C439.258 42.7978 443.06 38.9354 448.383 38.9354C453.707 38.9354 457.509 42.7978 457.509 48.2052Z" fill="white"/>
<path d="M480.324 110.004C473.48 102.279 468.917 92.2367 468.917 80.6495C468.917 69.0622 473.48 59.02 480.324 51.2951C487.929 43.5703 497.054 38.1629 508.461 38.1629C519.108 38.1629 528.994 42.7978 535.838 51.2951C543.443 59.02 547.245 69.0622 547.245 80.6495C547.245 92.2367 543.443 103.051 535.838 110.004C528.994 117.729 519.108 123.136 508.461 123.136C497.054 123.136 487.168 118.501 480.324 110.004ZM486.408 80.6495C486.408 87.6018 488.689 93.7817 492.491 98.4166C496.294 102.279 502.377 104.596 508.461 104.596C514.545 104.596 519.868 102.279 523.67 98.4166C527.473 93.7817 529.754 87.6018 529.754 80.6495C529.754 73.6971 527.473 67.5173 523.67 62.8824C519.868 59.02 514.545 56.7025 508.461 56.7025C502.377 56.7025 497.054 59.02 492.491 62.8824C488.689 67.5173 486.408 73.6971 486.408 80.6495Z" fill="white"/>
<path d="M557.131 98.4166C560.173 94.5542 566.256 93.7816 569.298 96.8716C573.861 100.734 580.705 104.596 587.549 104.596C592.112 104.596 595.915 103.051 598.956 101.507C601.238 99.1889 601.998 97.6441 601.998 96.0991C601.998 95.3266 601.998 94.5542 601.238 94.5542C601.238 93.7816 600.477 93.0092 598.956 92.2367C596.675 90.6918 591.352 88.3743 586.028 87.6018C580.705 86.8293 576.142 85.2844 571.58 82.9669C567.017 80.6495 563.215 77.5595 560.173 72.9247C558.652 70.6072 557.131 66.7448 557.131 62.8824C557.131 55.1575 561.694 48.9777 567.017 44.3427C573.101 40.4803 579.945 38.1629 587.549 38.1629C598.956 38.1629 607.321 43.5703 612.645 47.4327C616.447 49.7502 617.968 55.93 614.926 59.7924C612.645 63.6548 606.561 65.1998 602.759 62.1099C597.435 58.2474 592.873 55.93 587.549 55.93C583.747 55.93 579.945 57.475 577.663 59.02C575.382 60.5649 575.382 62.1099 575.382 62.8824C575.382 63.6548 575.382 63.6548 575.382 64.4273C575.382 64.4273 576.142 65.1998 576.903 65.9723C579.184 67.5172 582.987 69.0622 589.07 69.8347C594.394 70.6072 599.717 72.1521 604.28 74.4696C608.842 76.7871 613.405 79.8769 615.687 84.5119C617.968 87.6018 618.729 91.4642 618.729 95.3266C618.729 103.824 614.166 110.776 608.082 114.639C601.998 118.501 594.394 121.591 586.789 121.591C573.861 121.591 563.975 115.411 557.131 110.004C554.849 107.686 554.089 102.279 557.131 98.4166Z" fill="white"/>
<path d="M326.708 14.216C326.708 19.6234 322.906 23.4858 317.583 23.4858C312.259 23.4858 308.457 19.6234 308.457 14.216C308.457 8.80861 312.259 4.9462 317.583 4.9462C322.145 4.9462 326.708 8.80861 326.708 14.216Z" fill="#F05A2B"/>
</svg>
